<svg width="90" height="113" viewBox="0 0 90 113" fill="none" xmlns="http://www.w3.org/2000/svg">
<path d="M45 56.1878C60.533 56.1878 73.125 43.6098 73.125 28.0939C73.125 12.5781 60.533 0 45 0C29.467 0 16.875 12.5781 16.875 28.0939C16.875 43.6098 29.467 56.1878 45 56.1878Z" fill="#DA821C"/>
<path fill-rule="evenodd" clip-rule="evenodd" d="M90 103.802C90 108.879 86.1908 113 81.4865 113H8.51351C3.80919 113 0 108.879 0 103.802C0 81.3074 16.8811 63.0697 37.7027 63.0697H52.2973C73.1189 63.0697 90 81.3074 90 103.802ZM86.4535 107.634C86.3903 107.66 86.3513 107.692 86.3513 107.744L86.4535 107.634Z" fill="#DA821C"/>
</svg>
